<svg width="24" height="24" viewBox="0 0 24 24" fill="none" xmlns="http://www.w3.org/2000/svg">
<path d="M7 2C4.24 2 2 4.24 2 7V17C2 19.76 4.24 22 7 22H17C19.76 22 22 19.76 22 17V7C22 4.24 19.76 2 17 2H7ZM17 4C18.66 4 20 5.34 20 7V17C20 18.66 18.66 20 17 20H7C5.34 20 4 18.66 4 17V7C4 5.34 5.34 4 7 4H17ZM12 7.5C9.51 7.5 7.5 9.51 7.5 12C7.5 14.49 9.51 16.5 12 16.5C14.49 16.5 16.5 14.49 16.5 12C16.5 9.51 14.49 7.5 12 7.5ZM12 14.5C10.62 14.5 9.5 13.38 9.5 12C9.5 10.62 10.62 9.5 12 9.5C13.38 9.5 14.5 10.62 14.5 12C14.5 13.38 13.38 14.5 12 14.5ZM17.25 7.12C17.25 7.66 16.81 8.1 16.27 8.1C15.73 8.1 15.29 7.66 15.29 7.12C15.29 6.58 15.73 6.14 16.27 6.14C16.81 6.14 17.25 6.58 17.25 7.12Z" fill="white"/>
</svg>
