<svg width="24" height="24" viewBox="0 0 24 24" fill="none" xmlns="http://www.w3.org/2000/svg">
<path d="M12.03 2C6.5 2 2 6.5 2 12.03C2 14.16 2.69 16.2 3.9 17.9L2 22L6.22 20.14C7.86 21.03 9.79 21.5 11.81 21.5C17.34 21.5 21.85 17 21.85 11.47C21.85 5.94 17.34 2 12.03 2ZM12.03 19.6C10.3 19.6 8.66 19.14 7.3 18.32L7.05 18.18L4.78 19.06L5.67 16.8L5.53 16.55C4.74 15.27 4.32 13.88 4.32 12.39C4.32 7.98 7.79 4.51 12.2 4.51C16.61 4.51 20.08 7.98 20.08 12.39C20.08 16.8 16.61 19.6 12.03 19.6Z" fill="white"/>
<path d="M16.13 14.45C15.9 14.34 14.84 13.84 14.63 13.76C14.43 13.68 14.28 13.65 14.12 13.88C13.95 14.11 13.47 14.7 13.34 14.84C13.2 14.98 13.07 15 12.81 14.88C12.54 14.75 11.73 14.43 10.83 13.69C9.86 12.87 9.23 11.92 9.07 11.63C8.91 11.33 9.07 11.17 9.19 11.06C9.32 10.95 9.46 10.8 9.57 10.69C9.68 10.58 9.71 10.46 9.8 10.28C9.89 10.1 9.86 9.96 9.77 9.82C9.68 9.68 9.32 8.88 9.16 8.52C8.99 8.16 8.84 8.2 8.63 8.2C8.42 8.2 8.15 8.18 7.94 8.18C7.72 8.18 7.43 8.25 7.24 8.49C7.04 8.73 6.38 9.39 6.38 10.5C6.38 11.61 7.3 12.73 7.45 12.9C7.59 13.07 9.23 15.44 11.73 16.5C12.13 16.66 12.47 16.79 12.74 16.88C13.65 17.2 14.38 17.17 14.94 17.03C15.5 16.89 16.35 16.4 16.65 15.78C16.95 15.17 16.95 14.72 16.85 14.59C16.76 14.46 16.36 14.56 16.13 14.45Z" fill="white"/>
</svg>
